<svg id="Layer_1" data-name="Layer 1" xmlns="http://www.w3.org/2000/svg" xmlns:xlink="http://www.w3.org/1999/xlink" viewBox="0 0 500 500"><defs><style>.cls-1{fill:none;}.cls-2,.cls-25{fill:#fff;}.cls-3{clip-path:url(#clip-path);}.cls-4{clip-path:url(#clip-path-2);}.cls-5{fill:url(#radial-gradient);}.cls-6{clip-path:url(#clip-path-3);}.cls-7{clip-path:url(#clip-path-4);}.cls-8{clip-path:url(#clip-path-5);}.cls-9{clip-path:url(#clip-path-6);}.cls-10{clip-path:url(#clip-path-7);}.cls-11{clip-path:url(#clip-path-8);}.cls-12{clip-path:url(#clip-path-9);}.cls-13{clip-path:url(#clip-path-10);}.cls-14{clip-path:url(#clip-path-11);}.cls-15{clip-path:url(#clip-path-12);}.cls-16{clip-path:url(#clip-path-13);}.cls-17{clip-path:url(#clip-path-14);}.cls-18{clip-path:url(#clip-path-15);}.cls-19{clip-path:url(#clip-path-16);}.cls-20{clip-path:url(#clip-path-17);}.cls-21{fill:#f2514d;}.cls-22{clip-path:url(#clip-path-18);}.cls-23{fill:#b62080;}.cls-24{clip-path:url(#clip-path-19);}.cls-25{fill-rule:evenodd;}.cls-26{clip-path:url(#clip-path-20);}</style><clipPath id="clip-path"><rect class="cls-1" x="438" y="282.7" width="21.75" height="21.76"/></clipPath><clipPath id="clip-path-2"><rect class="cls-1" x="433.66" y="278.37" width="30.43" height="30.43" transform="translate(-86.57 324.93) rotate(-36.54)"/></clipPath><radialGradient id="radial-gradient" cx="-287.87" cy="1012.23" r="412.37" gradientTransform="matrix(-1.07, 0.79, 0.79, 1.07, -594.26, -654.98)" gradientUnits="userSpaceOnUse"><stop offset="0" stop-color="#f68a13"/><stop offset="0" stop-color="#f68913"/><stop offset="0.01" stop-color="#f68914"/><stop offset="0.01" stop-color="#f68815"/><stop offset="0.02" stop-color="#f68816"/><stop offset="0.02" stop-color="#f68617"/><stop offset="0.02" stop-color="#f68519"/><stop offset="0.03" stop-color="#f6851a"/><stop offset="0.03" stop-color="#f6841b"/><stop offset="0.04" stop-color="#f6841c"/><stop offset="0.04" stop-color="#f6831d"/><stop offset="0.04" stop-color="#f6831e"/><stop offset="0.05" stop-color="#f6821f"/><stop offset="0.05" stop-color="#f5811f"/><stop offset="0.05" stop-color="#f58020"/><stop offset="0.06" stop-color="#f57f21"/><stop offset="0.06" stop-color="#f57d22"/><stop offset="0.07" stop-color="#f57c24"/><stop offset="0.07" stop-color="#f57c25"/><stop offset="0.07" stop-color="#f57b26"/><stop offset="0.08" stop-color="#f57a27"/><stop offset="0.08" stop-color="#f57a28"/><stop offset="0.09" stop-color="#f57929"/><stop offset="0.09" stop-color="#f5782a"/><stop offset="0.09" stop-color="#f5772b"/><stop offset="0.1" stop-color="#f5762c"/><stop offset="0.1" stop-color="#f5752d"/><stop offset="0.11" stop-color="#f4742d"/><stop offset="0.11" stop-color="#f4742e"/><stop offset="0.11" stop-color="#f4732f"/><stop offset="0.12" stop-color="#f47230"/><stop offset="0.12" stop-color="#f47130"/><stop offset="0.13" stop-color="#f47031"/><stop offset="0.13" stop-color="#f46f32"/><stop offset="0.13" stop-color="#f46e33"/><stop offset="0.14" stop-color="#f46d34"/><stop offset="0.14" stop-color="#f46d35"/><stop offset="0.14" stop-color="#f46c37"/><stop offset="0.15" stop-color="#f46b38"/><stop offset="0.15" stop-color="#f46a38"/><stop offset="0.16" stop-color="#f46a39"/><stop offset="0.16" stop-color="#f4693a"/><stop offset="0.16" stop-color="#f3683a"/><stop offset="0.17" stop-color="#f3673b"/><stop offset="0.17" stop-color="#f3663c"/><stop offset="0.18" stop-color="#f3653c"/><stop offset="0.18" stop-color="#f3653d"/><stop offset="0.18" stop-color="#f3643e"/><stop offset="0.19" stop-color="#f3623f"/><stop offset="0.19" stop-color="#f36140"/><stop offset="0.2" stop-color="#f36041"/><stop offset="0.2" stop-color="#f35f42"/><stop offset="0.2" stop-color="#f35f43"/><stop offset="0.21" stop-color="#f35e44"/><stop offset="0.21" stop-color="#f35d44"/><stop offset="0.21" stop-color="#f35d45"/><stop offset="0.22" stop-color="#f35c46"/><stop offset="0.22" stop-color="#f25b46"/><stop offset="0.23" stop-color="#f25947"/><stop offset="0.23" stop-color="#f25848"/><stop offset="0.23" stop-color="#f25748"/><stop offset="0.24" stop-color="#f25649"/><stop offset="0.24" stop-color="#f25549"/><stop offset="0.25" stop-color="#f2544a"/><stop offset="0.25" stop-color="#f2544b"/><stop offset="0.25" stop-color="#f2534c"/><stop offset="0.26" stop-color="#f2534d"/><stop offset="0.26" stop-color="#f2524d"/><stop offset="0.27" stop-color="#f2514e"/><stop offset="0.27" stop-color="#f2504f"/><stop offset="0.27" stop-color="#f14e50"/><stop offset="0.28" stop-color="#f14d51"/><stop offset="0.28" stop-color="#f14c51"/><stop offset="0.29" stop-color="#f14b52"/><stop offset="0.29" stop-color="#f14a52"/><stop offset="0.29" stop-color="#f14952"/><stop offset="0.3" stop-color="#f14853"/><stop offset="0.3" stop-color="#f14754"/><stop offset="0.3" stop-color="#f14754"/><stop offset="0.31" stop-color="#f14655"/><stop offset="0.31" stop-color="#f14556"/><stop offset="0.32" stop-color="#f14456"/><stop offset="0.32" stop-color="#f14457"/><stop offset="0.32" stop-color="#f14358"/><stop offset="0.33" stop-color="#f14259"/><stop offset="0.33" stop-color="#f04159"/><stop offset="0.34" stop-color="#f04059"/><stop offset="0.34" stop-color="#f03f5a"/><stop offset="0.34" stop-color="#f03e5b"/><stop offset="0.35" stop-color="#f03d5b"/><stop offset="0.35" stop-color="#f03b5c"/><stop offset="0.36" stop-color="#f03a5d"/><stop offset="0.36" stop-color="#f0395d"/><stop offset="0.36" stop-color="#f0395e"/><stop offset="0.37" stop-color="#f0385e"/><stop offset="0.37" stop-color="#f0375f"/><stop offset="0.38" stop-color="#f0365f"/><stop offset="0.38" stop-color="#f0355f"/><stop offset="0.38" stop-color="#ef3460"/><stop offset="0.39" stop-color="#ef3360"/><stop offset="0.39" stop-color="#ef3361"/><stop offset="0.39" stop-color="#ef3162"/><stop offset="0.4" stop-color="#ef3062"/><stop offset="0.4" stop-color="#ef2f63"/><stop offset="0.41" stop-color="#ef2e63"/><stop offset="0.41" stop-color="#ef2d63"/><stop offset="0.41" stop-color="#ef2c64"/><stop offset="0.42" stop-color="#ef2c64"/><stop offset="0.42" stop-color="#ef2b65"/><stop offset="0.43" stop-color="#ef2a65"/><stop offset="0.43" stop-color="#ef2966"/><stop offset="0.43" stop-color="#ef2866"/><stop offset="0.44" stop-color="#ee2767"/><stop offset="0.44" stop-color="#ee2567"/><stop offset="0.45" stop-color="#ee2468"/><stop offset="0.45" stop-color="#ee2368"/><stop offset="0.45" stop-color="#ee2269"/><stop offset="0.46" stop-color="#ee2169"/><stop offset="0.46" stop-color="#ee2069"/><stop offset="0.46" stop-color="#ee206a"/><stop offset="0.47" stop-color="#ee206a"/><stop offset="0.47" stop-color="#ee1f6b"/><stop offset="0.48" stop-color="#ee1e6b"/><stop offset="0.48" stop-color="#ee1c6c"/><stop offset="0.48" stop-color="#ee1b6c"/><stop offset="0.49" stop-color="#ee1a6c"/><stop offset="0.49" stop-color="#ed196d"/><stop offset="0.5" stop-color="#ed176d"/><stop offset="0.5" stop-color="#ec176d"/><stop offset="0.51" stop-color="#ec176e"/><stop offset="0.51" stop-color="#eb176e"/><stop offset="0.52" stop-color="#ea176e"/><stop offset="0.52" stop-color="#e9176f"/><stop offset="0.52" stop-color="#e7176f"/><stop offset="0.53" stop-color="#e51870"/><stop offset="0.53" stop-color="#e41870"/><stop offset="0.54" stop-color="#e31870"/><stop offset="0.54" stop-color="#e21971"/><stop offset="0.54" stop-color="#e11971"/><stop offset="0.55" stop-color="#e01972"/><stop offset="0.55" stop-color="#e01972"/><stop offset="0.55" stop-color="#df1972"/><stop offset="0.56" stop-color="#de1972"/><stop offset="0.56" stop-color="#dd1973"/><stop offset="0.57" stop-color="#db1a74"/><stop offset="0.57" stop-color="#da1a74"/><stop offset="0.57" stop-color="#d91a74"/><stop offset="0.58" stop-color="#d81a75"/><stop offset="0.58" stop-color="#d71a75"/><stop offset="0.59" stop-color="#d51a75"/><stop offset="0.59" stop-color="#d41b76"/><stop offset="0.59" stop-color="#d31b76"/><stop offset="0.6" stop-color="#d31b77"/><stop offset="0.6" stop-color="#d21c77"/><stop offset="0.61" stop-color="#d01c77"/><stop offset="0.61" stop-color="#cf1c78"/><stop offset="0.61" stop-color="#ce1c78"/><stop offset="0.62" stop-color="#cc1d78"/><stop offset="0.62" stop-color="#cb1d79"/><stop offset="0.63" stop-color="#ca1d79"/><stop offset="0.63" stop-color="#c91d79"/><stop offset="0.63" stop-color="#c81d79"/><stop offset="0.64" stop-color="#c71d7a"/><stop offset="0.64" stop-color="#c61d7a"/><stop offset="0.64" stop-color="#c51e7a"/><stop offset="0.65" stop-color="#c31e7b"/><stop offset="0.65" stop-color="#c21e7b"/><stop offset="0.66" stop-color="#c11f7c"/><stop offset="0.66" stop-color="#c01f7c"/><stop offset="0.66" stop-color="#bf1f7d"/><stop offset="0.67" stop-color="#bf1f7d"/><stop offset="0.67" stop-color="#bd1f7d"/><stop offset="0.68" stop-color="#bc207d"/><stop offset="0.68" stop-color="#ba207e"/><stop offset="0.68" stop-color="#b9207e"/><stop offset="0.69" stop-color="#b9207f"/><stop offset="0.69" stop-color="#b8207f"/><stop offset="0.7" stop-color="#b7207f"/><stop offset="0.7" stop-color="#b62080"/><stop offset="0.7" stop-color="#b52080"/><stop offset="0.71" stop-color="#b42180"/><stop offset="0.71" stop-color="#b32180"/><stop offset="0.71" stop-color="#b22181"/><stop offset="0.72" stop-color="#b02281"/><stop offset="0.72" stop-color="#af2282"/><stop offset="0.73" stop-color="#ad2282"/><stop offset="0.73" stop-color="#ac2283"/><stop offset="0.73" stop-color="#ac2383"/><stop offset="0.74" stop-color="#ab2383"/><stop offset="0.74" stop-color="#aa2384"/><stop offset="0.75" stop-color="#a92384"/><stop offset="0.75" stop-color="#a72384"/><stop offset="0.75" stop-color="#a62385"/><stop offset="0.76" stop-color="#a52485"/><stop offset="0.76" stop-color="#a42485"/><stop offset="0.77" stop-color="#a32485"/><stop offset="0.77" stop-color="#a12486"/><stop offset="0.77" stop-color="#a02586"/><stop offset="0.78" stop-color="#9f2587"/><stop offset="0.78" stop-color="#9e2687"/><stop offset="0.79" stop-color="#9d2687"/><stop offset="0.79" stop-color="#9c2688"/><stop offset="0.79" stop-color="#9b2688"/><stop offset="0.8" stop-color="#9a2688"/><stop offset="0.8" stop-color="#992689"/><stop offset="0.8" stop-color="#982689"/><stop offset="0.81" stop-color="#972689"/><stop offset="0.81" stop-color="#952789"/><stop offset="0.82" stop-color="#94278a"/><stop offset="0.82" stop-color="#93278a"/><stop offset="0.82" stop-color="#92278a"/><stop offset="0.83" stop-color="#91288b"/><stop offset="0.83" stop-color="#90288b"/><stop offset="0.84" stop-color="#8f288b"/><stop offset="0.84" stop-color="#8e298c"/><stop offset="0.84" stop-color="#8d298c"/><stop offset="0.85" stop-color="#8b298d"/><stop offset="0.85" stop-color="#89298d"/><stop offset="0.86" stop-color="#882a8e"/><stop offset="0.86" stop-color="#872a8e"/><stop offset="0.86" stop-color="#862a8e"/><stop offset="0.87" stop-color="#852a8f"/><stop offset="0.87" stop-color="#852a8f"/><stop offset="0.88" stop-color="#832a8f"/><stop offset="0.88" stop-color="#822b8f"/><stop offset="0.88" stop-color="#812b90"/><stop offset="0.89" stop-color="#802b90"/><stop offset="0.89" stop-color="#7f2b90"/><stop offset="0.89" stop-color="#7d2c91"/><stop offset="0.9" stop-color="#7c2c91"/><stop offset="0.9" stop-color="#7a2c92"/><stop offset="0.91" stop-color="#792d92"/><stop offset="0.91" stop-color="#792d92"/><stop offset="0.91" stop-color="#782d92"/><stop offset="0.92" stop-color="#772d93"/><stop offset="0.92" stop-color="#752d93"/><stop offset="0.93" stop-color="#742d93"/><stop offset="0.93" stop-color="#742d93"/><stop offset="0.93" stop-color="#732e94"/><stop offset="0.94" stop-color="#712e94"/><stop offset="0.94" stop-color="#702e94"/><stop offset="0.95" stop-color="#6e2e95"/><stop offset="0.95" stop-color="#6d2e95"/><stop offset="0.95" stop-color="#6c2e95"/><stop offset="0.96" stop-color="#6c2f95"/><stop offset="0.96" stop-color="#6b2f96"/><stop offset="0.96" stop-color="#693096"/><stop offset="0.97" stop-color="#683097"/><stop offset="0.97" stop-color="#673097"/><stop offset="0.98" stop-color="#653097"/><stop offset="0.98" stop-color="#643198"/><stop offset="0.98" stop-color="#633198"/><stop offset="0.99" stop-color="#623199"/><stop offset="0.99" stop-color="#603199"/><stop offset="1" stop-color="#603199"/></radialGradient><clipPath id="clip-path-3"><rect class="cls-1" x="407.08" y="314.54" width="21.75" height="21.76"/></clipPath><clipPath id="clip-path-4"><rect class="cls-1" x="402.75" y="310.2" width="30.43" height="30.43" transform="translate(-111.59 312.72) rotate(-36.53)"/></clipPath><clipPath id="clip-path-5"><rect class="cls-1" x="427.13" y="235.54" width="21.75" height="21.76"/></clipPath><clipPath id="clip-path-6"><rect class="cls-1" x="422.79" y="231.2" width="30.43" height="30.43" transform="translate(-60.62 309.25) rotate(-36.54)"/></clipPath><clipPath id="clip-path-7"><rect class="cls-1" x="405.55" y="268.18" width="12.41" height="12.42"/></clipPath><clipPath id="clip-path-8"><rect class="cls-1" x="403.07" y="265.7" width="17.37" height="17.37" transform="translate(-82.43 299.05) rotate(-36.54)"/></clipPath><clipPath id="clip-path-9"><rect class="cls-1" x="468.71" y="193.49" width="12.37" height="12.42"/></clipPath><clipPath id="clip-path-10"><rect class="cls-1" x="466.23" y="191.02" width="17.37" height="17.37" transform="translate(-25.56 321.98) rotate(-36.54)"/></clipPath><clipPath id="clip-path-11"><rect class="cls-1" x="411.75" y="205.91" width="12.42" height="12.42"/></clipPath><clipPath id="clip-path-12"><rect class="cls-1" x="409.28" y="203.43" width="17.36" height="17.37" transform="translate(-44.14 290.51) rotate(-36.54)"/></clipPath><clipPath id="clip-path-13"><rect class="cls-1" x="107.08" y="38.06" width="320.19" height="424"/></clipPath><clipPath id="clip-path-14"><path class="cls-2" d="M348.16,257.3h21.75v21.75H348.16Zm24-24.92h21.75v21.76H372.14ZM387,273.09H374.57V260.67H387Zm-34.16-23.63V237h12.41v12.42Zm13.1,51.87V288.91h12.42v12.42Zm18.62,17.87H372.14V306.79h12.41Zm-19.31-3.39H352.83V303.4h12.41Zm52.49,94.68L301.6,319.18a24.51,24.51,0,0,0-30.31,38.52l36.31,28.63a78.15,78.15,0,0,1-9.44,6.62q-19.55,11.57-45.23,11.56T207.7,393a77.71,77.71,0,0,1-30.25-32.83q-10.69-21.27-10.7-49.25V189.25q0-28,10.7-49.25a77.77,77.77,0,0,1,30.25-32.83q19.55-11.57,45.23-11.56t45.23,11.56A77.9,77.9,0,0,1,328.41,140q10.69,21.27,10.7,49.25V282.7h9.05v12.43h-9.05v11.66h7.64v11.28l6.08,4.78v-2.11h21.74V340l9.23,7.26V336.83h7.51V325.42h6.8c.24-3.11.42-6.24.52-9.43h-7.11V302h7.23V290.74H388.47V278.32h10.28V191.24q0-45.66-18.12-80.36T329.41,57.21q-33.12-19-76.48-19t-76.48,19q-33.1,19-51.22,53.67t-18.12,80.36V308.88q0,45.67,18.12,80.36t51.22,53.67q33.11,19,76.48,19t76.48-19A129.89,129.89,0,0,0,355,423.71l32.28,25.45a24.6,24.6,0,1,0,30.41-38.67Z"/></clipPath><clipPath id="clip-path-15"><path class="cls-2" d="M348.16,257.3h21.75v21.75H348.16Zm24-24.92h21.75v21.76H372.14ZM387,273.09H374.57V260.67H387Zm-34.16-23.63V237h12.41v12.42Zm13.1,51.87V288.91h12.42v12.42Zm18.62,17.87H372.14V306.79h12.41Zm-19.31-3.39H352.83V303.4h12.41Zm52.49,94.68L301.6,319.18a24.51,24.51,0,0,0-30.31,38.52l36.31,28.63a78.15,78.15,0,0,1-9.44,6.62q-19.55,11.57-45.23,11.56T207.7,393a77.71,77.71,0,0,1-30.25-32.83q-10.69-21.27-10.7-49.25V189.25q0-28,10.7-49.25a77.77,77.77,0,0,1,30.25-32.83q19.55-11.57,45.23-11.56t45.23,11.56A77.9,77.9,0,0,1,328.41,140q10.69,21.27,10.7,49.25V282.7h9.05v12.43h-9.05v11.66h7.64v11.28l6.08,4.78v-2.11h21.74V340l9.23,7.26V336.83h7.51V325.42h6.8c.24-3.11.42-6.24.52-9.43h-7.11V302h7.23V290.74H388.47V278.32h10.28V191.24q0-45.66-18.12-80.36T329.41,57.21q-33.12-19-76.48-19t-76.48,19q-33.1,19-51.22,53.67t-18.12,80.36V308.88q0,45.67,18.12,80.36t51.22,53.67q33.11,19,76.48,19t76.48-19A129.89,129.89,0,0,0,355,423.71l32.28,25.45a24.6,24.6,0,1,0,30.41-38.67"/></clipPath><clipPath id="clip-path-16"><rect class="cls-2" x="12.75" y="-16.34" width="511.87" height="532.79" transform="translate(-96.07 209.11) rotate(-36.54)"/></clipPath><clipPath id="clip-path-17"><rect class="cls-1" x="253.03" y="140" width="1.64" height="153.33"/></clipPath><clipPath id="clip-path-18"><rect class="cls-1" x="258.67" y="140" width="3.88" height="153.33"/></clipPath><clipPath id="clip-path-19"><rect class="cls-2" x="18.84" y="141.33" width="51" height="320.72"/></clipPath><clipPath id="clip-path-20"><rect class="cls-2" x="18.84" y="38.06" width="51" height="85.94"/></clipPath></defs><g id="_959e03f70c" data-name="959e03f70c"><g class="cls-3"><g class="cls-4"><path class="cls-5" d="M470.15,296.74,452,272.3l-24.45,18.12,18.12,24.45Z"/></g></g><g class="cls-6"><g class="cls-7"><path class="cls-5" d="M439.24,328.58l-18.12-24.45-24.44,18.12L414.8,346.7Z"/></g></g><g class="cls-8"><g class="cls-9"><path class="cls-5" d="M459.28,249.58l-18.12-24.45-24.44,18.13,18.12,24.44Z"/></g></g><g class="cls-10"><g class="cls-11"><path class="cls-5" d="M423.9,276.19l-10.35-14L399.6,272.58l10.35,14Z"/></g></g><g class="cls-12"><g class="cls-13"><path class="cls-5" d="M487,201.51l-10.33-13.94L462.77,197.9l10.33,13.93Z"/></g></g><g class="cls-14"><g class="cls-15"><path class="cls-5" d="M430.1,213.92,419.76,200l-13.95,10.35,10.35,14Z"/></g></g><g class="cls-16"><path class="cls-2" d="M348.16,257.3h21.75v21.75H348.16Zm24-24.92h21.75v21.76H372.14ZM387,273.09H374.57V260.67H387Zm-34.16-23.63V237h12.41v12.42Zm13.1,51.87V288.91h12.42v12.42Zm18.62,17.87H372.14V306.79h12.41Zm-19.31-3.39H352.83V303.4h12.41Zm52.49,94.68L301.6,319.18a24.51,24.51,0,0,0-30.31,38.52l36.31,28.63a78.15,78.15,0,0,1-9.44,6.62q-19.55,11.57-45.23,11.56T207.7,393a77.71,77.71,0,0,1-30.25-32.83q-10.69-21.27-10.7-49.25V189.25q0-28,10.7-49.25a77.77,77.77,0,0,1,30.25-32.83q19.55-11.57,45.23-11.56t45.23,11.56A77.9,77.9,0,0,1,328.41,140q10.69,21.27,10.7,49.25V282.7h9.05v12.43h-9.05v11.66h7.64v11.28l6.08,4.78v-2.11h21.74V340l9.23,7.26V336.83h7.51V325.42h6.8c.24-3.11.42-6.24.52-9.43h-7.11V302h7.23V290.74H388.47V278.32h10.28V191.24q0-45.66-18.12-80.36T329.41,57.21q-33.12-19-76.48-19t-76.48,19q-33.1,19-51.22,53.67t-18.12,80.36V308.88q0,45.67,18.12,80.36t51.22,53.67q33.11,19,76.48,19t76.48-19A129.89,129.89,0,0,0,355,423.71l32.28,25.45a24.6,24.6,0,1,0,30.41-38.67Z"/><g class="cls-17"><path class="cls-2" d="M348.16,257.3h21.75v21.75H348.16Zm24-24.92h21.75v21.76H372.14ZM387,273.09H374.57V260.67H387Zm-34.16-23.63V237h12.41v12.42Zm13.1,51.87V288.91h12.42v12.42Zm18.62,17.87H372.14V306.79h12.41Zm-19.31-3.39H352.83V303.4h12.41Zm52.49,94.68L301.6,319.18a24.51,24.51,0,0,0-30.31,38.52l36.31,28.63a78.15,78.15,0,0,1-9.44,6.62q-19.55,11.57-45.23,11.56T207.7,393a77.71,77.71,0,0,1-30.25-32.83q-10.69-21.27-10.7-49.25V189.25q0-28,10.7-49.25a77.77,77.77,0,0,1,30.25-32.83q19.55-11.57,45.23-11.56t45.23,11.56A77.9,77.9,0,0,1,328.41,140q10.69,21.27,10.7,49.25V282.7h9.05v12.43h-9.05v11.66h7.64v11.28l6.08,4.78v-2.11h21.74V340l9.23,7.26V336.83h7.51V325.42h6.8c.24-3.11.42-6.24.52-9.43h-7.11V302h7.23V290.74H388.47V278.32h10.28V191.24q0-45.66-18.12-80.36T329.41,57.21q-33.12-19-76.48-19t-76.48,19q-33.1,19-51.22,53.67t-18.12,80.36V308.88q0,45.67,18.12,80.36t51.22,53.67q33.11,19,76.48,19t76.48-19A129.89,129.89,0,0,0,355,423.71l32.28,25.45a24.6,24.6,0,1,0,30.41-38.67"/><g class="cls-18"><rect class="cls-2" x="12.75" y="-16.34" width="511.87" height="532.79" transform="translate(-96.07 209.11) rotate(-36.54)"/><g class="cls-19"><path class="cls-2" d="M629.86,311.64,313.72-115-95.48,188.48,220.66,615.13Z"/></g></g></g></g><g class="cls-20"><path class="cls-21" d="M242.92,140.77a13.43,13.43,0,0,0-13.7,6.2c-.75,1.21-1.67,2.93-3.4,2.55a19.83,19.83,0,0,0-13.53,2.18c-7.15,4-11,13.62-7.31,21.19a3.06,3.06,0,0,1-2.52,4.43c-6.24,1-11.74,6.31-12.1,12.74a13.46,13.46,0,0,0,1.95,7.87,3.2,3.2,0,0,1-1.72,4.84c-6.41,2.22-12,9.55-9.44,16.45.84,3,3.25,5,5.28,7.21,1.33,1.58-.05,3.64-.33,5.34a20.49,20.49,0,0,1,12.16-6.52,19.26,19.26,0,0,1,22.56-11.34c2.84,1,2.57,5.77-.48,6.37-2.79,0-5.68-.82-8.39.27-4.36,1.29-7.2,5.29-8.39,9.49-.68,2.08-3.22,1.73-4.92,2.05-5.35.6-9.6,5.3-10.32,10.55,2.34,1.87,1.51,5.12,2.84,7.54,2.42,5.55,8.68,8.67,14.58,8.15a3.08,3.08,0,0,1,3.49,3.12c-.6,3.06-2.2,6.06-1.57,9.26a14.19,14.19,0,0,0,13.52,11.75c2.28-.21,4.7.53,5.62,2.82,3.76,7.26,14,9.28,20.61,4.74a13.67,13.67,0,0,0,6.13-12.24c-.12-11.06.17-22.13-.14-33.18-1.59-2.93-1-6.5-2.71-9.39-2.74-5.31-9-8.22-14.88-7.52-5.68.57-11.11,4.26-13.13,9.71,6.23,2,11.58,7.92,10.93,14.76-.32,3-5.27,3.53-6.25.69-.45-2.15-.46-4.58-2.09-6.26a8.22,8.22,0,0,0-12.51.25c-1.65,1.78-1.3,4.36-2.09,6.49-1.43,2.33-5.74,1.65-6.06-1.19-.63-6.92,4.84-13.28,11.47-14.67A21.49,21.49,0,0,1,232,222.05a22,22,0,0,1,21.58,6.13q-.09-22.94,0-45.88c-6.25,5.18-15,7.72-22.88,5.36-3.6-1.21-7.44-2.66-10-5.6-1.65-2.49,1.41-5.86,4-4.7,2.24,1.35,4.37,3,6.92,3.73A17.63,17.63,0,0,0,247.3,179c3.3-2.21,6.44-5.57,6.53-9.77,0-5.43,0-10.87,0-16.3C253.83,146.89,248.72,141.69,242.92,140.77Z"/></g><path class="cls-2" d="M327.66,206.05c-1.46-1.6-.07-3.74.25-5.5a20.22,20.22,0,0,1-12.13,6.54c-3.52,8.66-13.44,14.07-22.6,11.8-3.1-.76-3.07-5.74.05-6.47,2.62-.12,5.3.8,7.87-.09,4.56-1.11,7.74-5.13,8.94-9.51.6-2.24,3.26-1.9,5-2.22,5.33-.63,9.52-5.3,10.28-10.5a6.58,6.58,0,0,1-2-4.68c-1.13-6.73-7.95-11.48-14.62-11-2,.39-4.37-.72-4.34-3,.55-3.31,2.39-6.54,1.46-10-1.27-6.83-8.11-11.72-14.95-11.23-2.9.48-3.67-2.78-5.16-4.52-5.1-6.47-15.9-6.78-21.55-.86a16.54,16.54,0,0,0-4.44,11.91c0,11.89,0,23.8,0,35.69,0,6.49,5.45,12,11.68,13.07,7.18,1.44,15.18-2.54,17.86-9.47-6.11-2-11.39-7.68-11-14.45,0-3.17,4.87-4,6.22-1.32.56,2.17.43,4.67,2.08,6.42a8.22,8.22,0,0,0,12.47,0c1.65-1.75,1.53-4.28,2.11-6.47,1.36-2.65,6.17-1.82,6.2,1.32.41,6.86-5,13-11.57,14.4-2.35,10.3-13.2,17.09-23.47,16-4.68-.37-8.93-2.69-12.59-5.51,0,12.06,0,24.12,0,36.19,3.74-.25,7.21-2,11-2.09A19.81,19.81,0,0,1,285,245.76a22,22,0,0,1,6.35,13c5.2,3.06,8.07,10.2,4.91,15.66-1.67,2.35-5.55.51-5.47-2.11,0-1.92.79-4-.24-5.78a5.73,5.73,0,0,0-7.8-2.48c-2,.9-2.47,3.22-3.85,4.71a3.32,3.32,0,0,1-5.06-1.21c-.94-2,.4-4,1.4-5.67,2.08-3.21,5.82-4.8,9.49-5.35a13.71,13.71,0,0,0-10.17-9.48c-5-1.4-9.5,1.91-14.41,1.82,0,10.66-.05,21.3,0,32,.23,6.33,6,11.57,12.22,11.91a14.18,14.18,0,0,0,12.94-6.66c.75-.92,1.25-2.3,2.54-2.56a27,27,0,0,1,3.81.25,18.11,18.11,0,0,0,18.13-11,15.67,15.67,0,0,0-.22-13c-1-2,.89-4.25,3-4.23,7-1.15,12.73-8,11.69-15.18-.1-2.55-1.82-4.59-2.47-7-.15-2.36,2.14-3.23,3.91-4,6-2.61,9.54-10,7.22-16.24C332,210.29,329.74,208.18,327.66,206.05Z"/><path class="cls-2" d="M242.92,140.77a13.43,13.43,0,0,0-13.7,6.2c-.75,1.21-1.67,2.93-3.4,2.55a19.83,19.83,0,0,0-13.53,2.18c-7.15,4-11,13.62-7.31,21.19a3.06,3.06,0,0,1-2.52,4.43c-6.24,1-11.74,6.31-12.1,12.74a13.46,13.46,0,0,0,1.95,7.87,3.2,3.2,0,0,1-1.72,4.84c-6.41,2.22-12,9.55-9.44,16.45.84,3,3.25,5,5.28,7.21,1.33,1.58-.05,3.64-.33,5.34a20.49,20.49,0,0,1,12.16-6.52,19.26,19.26,0,0,1,22.56-11.34c2.84,1,2.57,5.77-.48,6.37-2.79,0-5.68-.82-8.39.27-4.36,1.29-7.2,5.29-8.39,9.49-.68,2.08-3.22,1.73-4.92,2.05-5.35.6-9.6,5.3-10.32,10.55,2.34,1.87,1.51,5.12,2.84,7.54,2.42,5.55,8.68,8.67,14.58,8.15a3.08,3.08,0,0,1,3.49,3.12c-.6,3.06-2.2,6.06-1.57,9.26a14.19,14.19,0,0,0,13.52,11.75c2.28-.21,4.7.53,5.62,2.82,3.76,7.26,14,9.28,20.61,4.74a13.67,13.67,0,0,0,6.13-12.24c-.12-11.06.17-22.13-.14-33.18-1.59-2.93-1-6.5-2.71-9.39-2.74-5.31-9-8.22-14.88-7.52-5.68.57-11.11,4.26-13.13,9.71,6.23,2,11.58,7.92,10.93,14.76-.32,3-5.27,3.53-6.25.69-.45-2.15-.46-4.58-2.09-6.26a8.22,8.22,0,0,0-12.51.25c-1.65,1.78-1.3,4.36-2.09,6.49-1.43,2.33-5.74,1.65-6.06-1.19-.63-6.92,4.84-13.28,11.47-14.67A21.49,21.49,0,0,1,232,222.05a22,22,0,0,1,21.58,6.13q-.09-22.94,0-45.88c-6.25,5.18-15,7.72-22.88,5.36-3.6-1.21-7.44-2.66-10-5.6-1.65-2.49,1.41-5.86,4-4.7,2.24,1.35,4.37,3,6.92,3.73A17.63,17.63,0,0,0,247.3,179c3.3-2.21,6.44-5.57,6.53-9.77,0-5.43,0-10.87,0-16.3C253.83,146.89,248.72,141.69,242.92,140.77Z"/><g class="cls-22"><path class="cls-23" d="M327.66,206.05c-1.46-1.6-.07-3.74.25-5.5a20.22,20.22,0,0,1-12.13,6.54c-3.52,8.66-13.44,14.07-22.6,11.8-3.1-.76-3.07-5.74.05-6.47,2.62-.12,5.3.8,7.87-.09,4.56-1.11,7.74-5.13,8.94-9.51.6-2.24,3.26-1.9,5-2.22,5.33-.63,9.52-5.3,10.28-10.5a6.58,6.58,0,0,1-2-4.68c-1.13-6.73-7.95-11.48-14.62-11-2,.39-4.37-.72-4.34-3,.55-3.31,2.39-6.54,1.46-10-1.27-6.83-8.11-11.72-14.95-11.23-2.9.48-3.67-2.78-5.16-4.52-5.1-6.47-15.9-6.78-21.55-.86a16.54,16.54,0,0,0-4.44,11.91c0,11.89,0,23.8,0,35.69,0,6.49,5.45,12,11.68,13.07,7.18,1.44,15.18-2.54,17.86-9.47-6.11-2-11.39-7.68-11-14.45,0-3.17,4.87-4,6.22-1.32.56,2.17.43,4.67,2.08,6.42a8.22,8.22,0,0,0,12.47,0c1.65-1.75,1.53-4.28,2.11-6.47,1.36-2.65,6.17-1.82,6.2,1.32.41,6.86-5,13-11.57,14.4-2.35,10.3-13.2,17.09-23.47,16-4.68-.37-8.93-2.69-12.59-5.51,0,12.06,0,24.12,0,36.19,3.74-.25,7.21-2,11-2.09A19.81,19.81,0,0,1,285,245.76a22,22,0,0,1,6.35,13c5.2,3.06,8.07,10.2,4.91,15.66-1.67,2.35-5.55.51-5.47-2.11,0-1.92.79-4-.24-5.78a5.73,5.73,0,0,0-7.8-2.48c-2,.9-2.47,3.22-3.85,4.71a3.32,3.32,0,0,1-5.06-1.21c-.94-2,.4-4,1.4-5.67,2.08-3.21,5.82-4.8,9.49-5.35a13.71,13.71,0,0,0-10.17-9.48c-5-1.4-9.5,1.91-14.41,1.82,0,10.66-.05,21.3,0,32,.23,6.33,6,11.57,12.22,11.91a14.18,14.18,0,0,0,12.94-6.66c.75-.92,1.25-2.3,2.54-2.56a27,27,0,0,1,3.81.25,18.11,18.11,0,0,0,18.13-11,15.67,15.67,0,0,0-.22-13c-1-2,.89-4.25,3-4.23,7-1.15,12.73-8,11.69-15.18-.1-2.55-1.82-4.59-2.47-7-.15-2.36,2.14-3.23,3.91-4,6-2.61,9.54-10,7.22-16.24C332,210.29,329.74,208.18,327.66,206.05Z"/></g><rect class="cls-2" x="18.84" y="141.33" width="51" height="320.72"/><g class="cls-24"><path class="cls-25" d="M105.18,428.29v17.08H88.1V428.29ZM71,445.37v17.08H54V445.37Zm17.07-17.08H54V411.21H36.88v17.08H19.8V141.83h85.38V411.21H88.1Zm0-34.15h17.09V377.06H88.1ZM54,411.21H71V394.14H54ZM36.88,394.14H54V377.06H36.88Z"/></g><rect class="cls-2" x="18.84" y="38.06" width="51" height="85.94"/><g class="cls-26"><path class="cls-2" d="M19.8,38.06h85.38v85.39H19.8Z"/></g></g></svg>